<svg xmlns="http://www.w3.org/2000/svg" xmlns:xlink="http://www.w3.org/1999/xlink" viewBox="0 0 750 500"><defs><style>.cls-1,.cls-11,.cls-12,.cls-19,.cls-24,.cls-25,.cls-28,.cls-30,.cls-34,.cls-36,.cls-39,.cls-42,.cls-44,.cls-47,.cls-49,.cls-50,.cls-52,.cls-53,.cls-55,.cls-58,.cls-59,.cls-60,.cls-61,.cls-65,.cls-66,.cls-69,.cls-70,.cls-72,.cls-73,.cls-74,.cls-75,.cls-78,.cls-8,.cls-9{fill:none;}.cls-2{isolation:isolate;}.cls-10,.cls-17,.cls-23,.cls-3{fill:#fff;}.cls-4{fill:#f0fbff;}.cls-5{fill:#82bcf4;}.cls-6{fill:#c0e4ff;}.cls-7{fill:#9ad0fc;}.cls-8,.cls-9{stroke:#9dd4f9;}.cls-10,.cls-11,.cls-14,.cls-17,.cls-19,.cls-28,.cls-34,.cls-53,.cls-55,.cls-58,.cls-59,.cls-70,.cls-8,.cls-9{stroke-linejoin:round;}.cls-9{stroke-dasharray:3.5 3.5;}.cls-10,.cls-11{stroke:#b8e6ff;}.cls-12,.cls-30{stroke:#86bfef;}.cls-12,.cls-23,.cls-24,.cls-25,.cls-30,.cls-36,.cls-39,.cls-42,.cls-44,.cls-47,.cls-49,.cls-50,.cls-52,.cls-56,.cls-60,.cls-61,.cls-65,.cls-66,.cls-69,.cls-72,.cls-73,.cls-74,.cls-75,.cls-78{stroke-miterlimit:10;}.cls-13{fill:#86bfef;}.cls-14{fill:#464646;stroke:#070707;}.cls-15{fill:#616161;}.cls-16{fill:#7e7e7e;}.cls-17,.cls-70{stroke:#313131;}.cls-18{clip-path:url(#clip-path);}.cls-19,.cls-28{stroke:#def2ff;}.cls-19{stroke-width:5px;}.cls-20,.cls-21{fill:#def2ff;}.cls-21{opacity:0.55;mix-blend-mode:screen;}.cls-22{clip-path:url(#clip-path-2);}.cls-23,.cls-24,.cls-25{stroke:#ccedff;}.cls-25,.cls-49,.cls-53{stroke-linecap:round;}.cls-25,.cls-28{stroke-width:3px;}.cls-26{fill:#ccedff;}.cls-27{fill:#e6f7ff;}.cls-29{clip-path:url(#clip-path-3);}.cls-30{stroke-width:1.5px;}.cls-31{clip-path:url(#clip-path-4);}.cls-32,.cls-56{fill:#843722;}.cls-33{fill:#22252d;}.cls-34{stroke:#1a3987;}.cls-34,.cls-36,.cls-39,.cls-42,.cls-44,.cls-47,.cls-50,.cls-55,.cls-58,.cls-59,.cls-60,.cls-72,.cls-73,.cls-74,.cls-75,.cls-78{stroke-width:0.75px;}.cls-35{fill:#592921;}.cls-36{stroke:#a35945;}.cls-37{fill:#0b0b3a;}.cls-38{fill:#f3e0cc;}.cls-39{stroke:#e2aa79;}.cls-40{fill:#0070e4;}.cls-41{fill:#18277a;}.cls-42{stroke:#5288ff;}.cls-43{fill:#ffab37;}.cls-44{stroke:#e26223;}.cls-45{fill:#af480e;}.cls-46{fill:#e26223;}.cls-47{stroke:#113d98;}.cls-48{fill:#00276f;}.cls-49{stroke:#0070e4;}.cls-49,.cls-52,.cls-53,.cls-61,.cls-65,.cls-66,.cls-69{stroke-width:0.5px;}.cls-50,.cls-52{stroke:#3d0c02;}.cls-51{fill:#ff855a;}.cls-53{stroke:#00276f;}.cls-54{fill:#bc3f39;}.cls-55{stroke:#912623;}.cls-56{stroke:#843722;}.cls-57{fill:#d34f42;}.cls-58{stroke:#7c1f1a;}.cls-59{stroke:#4c5360;}.cls-60{stroke:#f9d9d7;}.cls-61{stroke:#0b0b3a;}.cls-62{fill:#212237;}.cls-63{fill:#4c82fc;}.cls-64{fill:#202263;}.cls-65{stroke:#4c82fc;}.cls-66{stroke:#1a4fc6;}.cls-67{fill:#4348a3;}.cls-68{fill:#103bb2;}.cls-69{stroke:#458df4;}.cls-71{fill:#101d54;}.cls-72{stroke:#773026;}.cls-73{stroke:#1a3a7a;}.cls-74{stroke:#c44220;}.cls-75{stroke:#304dc6;}.cls-76{fill:#a5a5a5;}.cls-77{fill:#bdbdbd;}.cls-78{stroke:#868a8e;}</style><clipPath id="clip-path"><rect class="cls-1" x="212.46" y="147.99" width="151.89" height="230.63"/></clipPath><clipPath id="clip-path-2"><rect class="cls-1" x="385.66" y="139.9" width="151.89" height="238.72" transform="translate(923.2 518.52) rotate(180)"/></clipPath><clipPath id="clip-path-3"><path class="cls-1" d="M135.75,363.48a14.1,14.1,0,1,1,0-28.2h167v28.2Z"/></clipPath><clipPath id="clip-path-4"><path class="cls-1" d="M128.22,433a26.78,26.78,0,0,1,0-53.55H334.68V433Z"/></clipPath></defs><title>Artboard 1</title><g class="cls-2"><g id="BACKGROUND"><rect class="cls-3" width="750" height="500"/></g><g id="OBJECTS"><path class="cls-4" d="M560.06,82.24c-1.6-.83-3.38-1.21-4.9-2.21-4.3-2.82-5.06-8.84-6.82-13.59a12.2,12.2,0,0,0-12.89-7.72c-4,.4-7,2.75-9.62,5.57-1.68,1.83-2.19,7.91-7.38,8-1,0-1.81-.87-2.66-1.48-2.49-1.8-6.37-.48-7.48,2.57-.55,1.5-.51,3.27-1.37,4.58-2.2,3.36-7.65.7-10.54,3.36-1,1-1.55,2.46-2.45,3.57-1.31,1.63-3.33,2.29-5.25,2.84-5.29,1.53-12.15,1.77-12.15,3.5,0,2.45,27.23,1,43.23,1h26.41c4.11,0,17.26,2,17-5.7A5.31,5.31,0,0,0,560.06,82.24Z"/><path class="cls-4" d="M166.13,121.35c-.89-1.54-1.19-3.53-1.84-5.27-1.43-3.85-4.77-6.29-8-5.85-1.49.21-2.93,1-4.44,1-6.88,0-7.26-11.59-12.48-15.18-4.6-3.17-10.33-.6-13.21,4.52-1.66,2.94-2.45,6.55-3.7,9.82s-3.54,3.67-6.26,4.32-5.72,3.84-4.88,7.73a6.42,6.42,0,0,0,2.29,3.85c4.37,3.07,12.16,2.75,17.9,2.58,5.39-.16,49.34.34,49.34-1.48S168.8,125.94,166.13,121.35Z"/><path class="cls-4" d="M429.85,56.73l-.16-.21c-1.63-2.16-2.27-4.51-5-4.66-3.2-.18-8.4.85-9.72-4-.8-2.92,0-6.32-1.71-8.88a5.56,5.56,0,0,0-5-2.44c-3.18.19-5.77,3-8.87,3.49-3.65.63-5.38-3.72-8.32-5.55-5.18-3.21-9.64-.37-12.3,2.23a20.13,20.13,0,0,0-5.38,11.87c-.67,5.6,3.44,11,7.81,13.47a14.19,14.19,0,0,0,6.94,1.52c2.79,0,5.58-.09,8.34-.17,5.22-.15,47.77.31,47.77-1.35,0-1.06-6.18-2.06-7.06-2.37C434.71,58.77,431.83,59.11,429.85,56.73Z"/><polygon class="cls-5" points="223.39 81.73 223.63 87.59 200.63 63.56 223.39 81.73"/><polygon class="cls-6" points="233.49 74.76 211.92 89.51 200.63 63.56 233.49 74.76"/><polygon class="cls-7" points="225.24 80.4 200.63 63.56 221.72 82.81 223.63 87.59 225.24 80.4"/><line class="cls-8" x1="645.75" y1="148.86" x2="645.75" y2="153.49"/><line class="cls-8" x1="648.06" y1="151.17" x2="643.44" y2="151.17"/><line class="cls-8" x1="683.8" y1="348.71" x2="683.8" y2="353.33"/><line class="cls-8" x1="686.11" y1="351.02" x2="681.49" y2="351.02"/><line class="cls-8" x1="637.91" y1="189.82" x2="637.91" y2="194.44"/><line class="cls-8" x1="640.22" y1="192.13" x2="635.6" y2="192.13"/><line class="cls-8" x1="183.64" y1="107.15" x2="183.64" y2="111.77"/><line class="cls-8" x1="185.95" y1="109.46" x2="181.33" y2="109.46"/><line class="cls-8" x1="59.05" y1="207.5" x2="59.05" y2="212.12"/><line class="cls-8" x1="61.36" y1="209.81" x2="56.73" y2="209.81"/><line class="cls-8" x1="71.74" y1="389.21" x2="71.74" y2="393.84"/><line class="cls-8" x1="74.05" y1="391.52" x2="69.43" y2="391.52"/><line class="cls-8" x1="373.35" y1="79.84" x2="373.35" y2="84.47"/><line class="cls-8" x1="375.66" y1="82.15" x2="371.04" y2="82.15"/><path class="cls-8" d="M393.12,124.34a2.21,2.21,0,1,1-2.21-2.21A2.21,2.21,0,0,1,393.12,124.34Z"/><path class="cls-8" d="M679.34,201.75a2.21,2.21,0,1,1-2.21-2.21A2.21,2.21,0,0,1,679.34,201.75Z"/><path class="cls-8" d="M486.54,63.56a2.21,2.21,0,1,1-2.21-2.21A2.21,2.21,0,0,1,486.54,63.56Z"/><path class="cls-8" d="M281.42,107.15a2.21,2.21,0,1,1-2.21-2.21A2.21,2.21,0,0,1,281.42,107.15Z"/><circle class="cls-8" cx="593.01" cy="124.34" r="2.21"/><circle class="cls-8" cx="40.48" cy="260.74" r="2.21"/><circle class="cls-8" cx="121.64" cy="174.8" r="2.21"/><path class="cls-8" d="M165.54,94.72a2.21,2.21,0,1,1-2.21-2.21A2.21,2.21,0,0,1,165.54,94.72Z"/><line class="cls-8" x1="89.67" y1="151.17" x2="114.6" y2="151.17"/><line class="cls-8" x1="122.2" y1="151.17" x2="133.33" y2="151.17"/><line class="cls-8" x1="525.41" y1="109.36" x2="550.35" y2="109.36"/><line class="cls-8" x1="557.94" y1="109.36" x2="569.07" y2="109.36"/><line class="cls-8" x1="328.05" y1="70.5" x2="311.11" y2="70.5"/><line class="cls-8" x1="305.52" y1="70.5" x2="296.39" y2="70.5"/><line class="cls-8" x1="417.32" y1="88.09" x2="435.55" y2="88.09"/><line class="cls-8" x1="664.8" y1="281.28" x2="683.03" y2="281.28"/><line class="cls-8" x1="677.79" y1="274.67" x2="689.77" y2="274.67"/><path class="cls-9" d="M550.09,354.89c-23.33-2-46.25-7.68-69.74-7.94-10.78-.11-24,.15-34,4.92-9.47,4.56-17.1,12.74-27.14,16.66a48.29,48.29,0,0,1-14.35,2.86c-39.36,2.66-72.66-20.13-108.94-30.95-14.47-4.31-30.57,1.09-45,4-19.4,3.84-38.51,10.25-58.5,9.39C149,351.92,96.3,329.7,78.83,287c-7.54-18.44-9.36-40.81,1.32-58.45,12.26-20.24,38.19-26.21,60.94-32.71,25.48-7.28,49.78-22.71,68-42.31,13.22-14.23,19.24-33,30.4-48.64,12.58-17.6,35.92-29.66,57.55-22.08,23,8.08,39.58,24.15,65.25,25.93C381,110,398.59,104.61,417,104a88.39,88.39,0,0,1,71.59,33.37c8,10.26,13.75,22.36,23.18,31.33C528.93,185,554.85,187.89,578.44,186s47.19-14.55,70.59-11.07c26.92,4,54.06,25,56.05,54.41,2.52,37.35-15.65,72.83-44.15,96.28C630.28,350.86,588.8,358.17,550.09,354.89Z"/><path class="cls-10" d="M199.54,295.45c-16.9-19.29-50.13-61-34.3-152.32,54,48.56,59.89,80.26,62.18,141.1"/><path class="cls-11" d="M165.24,143.13s9.39,73.74,47.8,144.28"/><path class="cls-11" d="M165.24,143.13s-5.8,78.72,41.89,150.17"/><path class="cls-11" d="M216.74,284.64c-2.31-17.34-32.45-102.72-51.5-141.51"/><path class="cls-11" d="M222.32,280.66c-7.9-43.93-14.17-87.35-57.08-137.53"/><path class="cls-10" d="M187.22,310.72c-19.18-10.79-58-35.09-71.25-113.51,57.54,23.91,71.39,47.88,90.62,96.46"/><path class="cls-11" d="M116,197.21s28.65,57,79.89,103.14"/><path class="cls-11" d="M116,197.21s17.78,65.38,76.79,109.6"/><path class="cls-11" d="M198.06,297.06c-6.82-13.38-55.59-73.89-82.09-99.85"/><path class="cls-11" d="M201.44,292.24c-18.93-33.3-36.4-66.66-85.47-95"/><path class="cls-10" d="M173,370.87c-25.6-1.52-78.65-7.18-132.53-82.56C113,284,139.68,302,184.6,343.13"/><path class="cls-11" d="M40.48,288.31s59.09,45.1,136.29,67.29"/><path class="cls-11" d="M40.48,288.31s52,59.41,136.33,75.64"/><path class="cls-11" d="M177.39,351c-14-10.54-95.91-49-136.91-62.72"/><path class="cls-11" d="M178.48,344.26C141.66,319,106.35,293,40.48,288.31"/><path class="cls-12" d="M167.33,340.3c-12.12-56.94-60.64-86.62-60.64-86.62"/><path class="cls-13" d="M108.15,254.64S98.58,237,91.37,242.29,108.15,254.64,108.15,254.64Z"/><path class="cls-13" d="M116.54,260.81s4.57-20.72-4.85-21.5S116.54,260.81,116.54,260.81Z"/><path class="cls-13" d="M124.54,267.58s12.29-17.3,3.93-21.69S124.54,267.58,124.54,267.58Z"/><path class="cls-13" d="M135,277.89s11.58-16.28,3.7-20.41S135,277.89,135,277.89Z"/><path class="cls-13" d="M135.61,277.74s-18.67-7.11-20.69,1.55S135.61,277.74,135.61,277.74Z"/><path class="cls-13" d="M143.35,287.79s11.58-16.28,3.7-20.41S143.35,287.79,143.35,287.79Z"/><path class="cls-13" d="M144,287.64s-18.67-7.11-20.69,1.55S144,287.64,144,287.64Z"/><path class="cls-13" d="M150.31,299.44s13.58-14.65,6.3-19.77S150.31,299.44,150.31,299.44Z"/><path class="cls-13" d="M150.94,299.36s-17.59-9.46-20.71-1.13S150.94,299.36,150.94,299.36Z"/><path class="cls-13" d="M156.93,309.84s13.58-14.65,6.31-19.76S156.93,309.84,156.93,309.84Z"/><path class="cls-13" d="M157.56,309.77s-17.59-9.47-20.71-1.14S157.56,309.77,157.56,309.77Z"/><path class="cls-13" d="M162.3,324s13.58-14.65,6.31-19.77S162.3,324,162.3,324Z"/><path class="cls-13" d="M162.93,323.88s-17.59-9.46-20.71-1.13S162.93,323.88,162.93,323.88Z"/><path class="cls-13" d="M124.23,267.56s-21.19-1.17-20.44,8.25S124.23,267.56,124.23,267.56Z"/><path class="cls-13" d="M116.19,260.06s-20-7.1-21.93,2.15S116.19,260.06,116.19,260.06Z"/><path class="cls-12" d="M138.24,383.59C104.72,348.9,57.6,349.34,57.6,349.34"/><path class="cls-13" d="M59.05,349.38s-14.47-8.19-17.21-1.32S59.05,349.38,59.05,349.38Z"/><path class="cls-13" d="M67.66,350s-5.89-16.57-12.85-13S67.66,350,67.66,350Z"/><path class="cls-13" d="M76.24,351.27s1.05-17.55-6.75-17S76.24,351.27,76.24,351.27Z"/><path class="cls-13" d="M88.12,353.93s1-16.52-6.36-16S88.12,353.93,88.12,353.93Z"/><path class="cls-13" d="M88.49,353.55s-16.24,3.2-13.86,10.18S88.49,353.55,88.49,353.55Z"/><path class="cls-13" d="M98.34,357.22s1-16.53-6.37-16S98.34,357.22,98.34,357.22Z"/><path class="cls-13" d="M98.71,356.84S82.47,360,84.85,367,98.71,356.84,98.71,356.84Z"/><path class="cls-13" d="M108.34,362.35s3.11-16.26-4.25-16.66S108.34,362.35,108.34,362.35Z"/><path class="cls-13" d="M108.75,362s-16.52,1.07-15,8.29S108.75,362,108.75,362Z"/><path class="cls-13" d="M117.56,366.75s3.11-16.25-4.25-16.66S117.56,366.75,117.56,366.75Z"/><path class="cls-13" d="M118,366.42s-16.52,1.07-15.06,8.29S118,366.42,118,366.42Z"/><path class="cls-13" d="M127.53,374.31s3.11-16.25-4.25-16.65S127.53,374.31,127.53,374.31Z"/><path class="cls-13" d="M127.94,374s-16.52,1.07-15,8.3S127.94,374,127.94,374Z"/><path class="cls-13" d="M76,351.4s-15.4,8.48-10.74,14.77S76,351.4,76,351.4Z"/><path class="cls-13" d="M67.08,349.65s-17.17,3.8-14.47,11.14S67.08,349.65,67.08,349.65Z"/><path class="cls-10" d="M546.21,271.89c20.45-15.46,61.44-49.61,64.42-142.22C548,166.3,535.74,196.15,521.17,255.26"/><path class="cls-11" d="M610.63,129.67s-24.12,70.31-76,131.61"/><path class="cls-11" d="M610.63,129.67s-10.25,78.26-71.42,138.58"/><path class="cls-11" d="M531.55,257.83c5.78-16.52,52.58-94,79.08-128.16"/><path class="cls-11" d="M526.89,252.8c16.63-41.42,31.56-82.67,83.74-123.13"/><path class="cls-10" d="M571,322.57c24.85-6.35,75.86-22,114.43-106.23-72,9.54-94.78,32.33-131.08,81.2"/><path class="cls-11" d="M685.38,216.34s-49.44,55.51-121,92"/><path class="cls-11" d="M685.38,216.34S645.65,284.55,565.9,316.5"/><path class="cls-11" d="M562.88,303.93c11.71-13,84.86-66.37,122.5-87.59"/><path class="cls-11" d="M560.53,297.49c31.36-31.77,61.08-64,124.85-81.15"/><path class="cls-10" d="M560.64,361.28c25.42,3.42,78.57,8,145.9-55.61-70.29-18.12-100-5.54-152,26.17"/><path class="cls-11" d="M706.54,305.67S639.9,338.6,559.88,345.58"/><path class="cls-11" d="M706.54,305.67s-62.39,48.34-148.3,48.1"/><path class="cls-11" d="M560.14,341c15.73-7.66,103.54-29.73,146.4-35.3"/><path class="cls-11" d="M560.38,334.12c41-17.7,80.62-36.48,146.16-28.45"/><path class="cls-10" d="M539.33,385.58c16.71,11.53,52.29,33.77,115.22,10.51-44-38.3-67.75-39.51-111.85-34.45"/><path class="cls-11" d="M654.55,396.09s-54.56.77-111.72-22.4"/><path class="cls-11" d="M654.55,396.09s-55.58,13.68-115-16.93"/><path class="cls-11" d="M544.2,370.37c12.85-.1,79.27,14.66,110.35,25.72"/><path class="cls-11" d="M546.12,365.38c32.89,1.41,65.15,1.56,108.43,30.71"/><path class="cls-12" d="M569.65,284.6c12.12-57,60.64-86.62,60.64-86.62"/><path class="cls-13" d="M628.83,198.94s9.57-17.63,16.77-12.35S628.83,198.94,628.83,198.94Z"/><path class="cls-13" d="M620.44,205.11s-4.57-20.73,4.85-21.5S620.44,205.11,620.44,205.11Z"/><path class="cls-13" d="M612.44,211.88s-12.3-17.3-3.93-21.69S612.44,211.88,612.44,211.88Z"/><path class="cls-13" d="M602,222.19s-11.58-16.28-3.7-20.41S602,222.19,602,222.19Z"/><path class="cls-13" d="M601.37,222s18.67-7.11,20.69,1.55S601.37,222,601.37,222Z"/><path class="cls-13" d="M593.63,232.09s-11.58-16.28-3.7-20.42S593.63,232.09,593.63,232.09Z"/><path class="cls-13" d="M593,231.93s18.66-7.11,20.68,1.56S593,231.93,593,231.93Z"/><path class="cls-13" d="M586.67,243.73s-13.58-14.64-6.31-19.76S586.67,243.73,586.67,243.73Z"/><path class="cls-13" d="M586,243.66s17.59-9.47,20.71-1.14S586,243.66,586,243.66Z"/><path class="cls-13" d="M580.05,254.14s-13.58-14.65-6.31-19.77S580.05,254.14,580.05,254.14Z"/><path class="cls-13" d="M579.42,254.06s17.59-9.46,20.71-1.13S579.42,254.06,579.42,254.06Z"/><path class="cls-13" d="M574.68,268.25s-13.59-14.64-6.31-19.76S574.68,268.25,574.68,268.25Z"/><path class="cls-13" d="M574.05,268.18s17.59-9.47,20.71-1.14S574.05,268.18,574.05,268.18Z"/><path class="cls-13" d="M612.75,211.86s21.19-1.17,20.43,8.25S612.75,211.86,612.75,211.86Z"/><path class="cls-13" d="M620.79,204.35s20-7.09,21.93,2.16S620.79,204.35,620.79,204.35Z"/><path class="cls-12" d="M547.24,391.52c35.7-30,80.93-24.79,80.93-24.79"/><path class="cls-13" d="M626.78,366.62s14.72-6.41,16.66.47S626.78,366.62,626.78,366.62Z"/><path class="cls-13" d="M618.44,366.38s7.33-15.32,13.65-11.17S618.44,366.38,618.44,366.38Z"/><path class="cls-13" d="M610.06,366.71s.76-17,8.2-15.61S610.06,366.71,610.06,366.71Z"/><path class="cls-13" d="M598.38,368.07s.72-16,7.72-14.7S598.38,368.07,598.38,368.07Z"/><path class="cls-13" d="M598.07,367.67s15.28,4.71,12.29,11.17S598.07,367.67,598.07,367.67Z"/><path class="cls-13" d="M588.23,370.2s.72-16,7.72-14.7S588.23,370.2,588.23,370.2Z"/><path class="cls-13" d="M587.92,369.8s15.28,4.71,12.29,11.17S587.92,369.8,587.92,369.8Z"/><path class="cls-13" d="M578.11,374.12s-1.36-15.93,5.75-15.57S578.11,374.12,578.11,374.12Z"/><path class="cls-13" d="M577.74,373.77s15.77,2.69,13.64,9.48S577.74,373.77,577.74,373.77Z"/><path class="cls-13" d="M568.81,377.43s-1.36-15.94,5.75-15.58S568.81,377.43,568.81,377.43Z"/><path class="cls-13" d="M568.44,377.07s15.77,2.69,13.63,9.48S568.44,377.07,568.44,377.07Z"/><path class="cls-13" d="M558.47,383.69s-1.36-15.93,5.75-15.58S558.47,383.69,558.47,383.69Z"/><path class="cls-13" d="M558.1,383.33s15.76,2.69,13.63,9.48S558.1,383.33,558.1,383.33Z"/><path class="cls-13" d="M610.27,366.85s13.94,9.71,8.82,15.28S610.27,366.85,610.27,366.85Z"/><path class="cls-13" d="M619,366.08s16.12,5.37,12.78,12.16S619,366.08,619,366.08Z"/><path class="cls-14" d="M196.34,137.68H553.66A5.32,5.32,0,0,1,559,143V401.3a5.31,5.31,0,0,1-5.31,5.31H196.34A5.31,5.31,0,0,1,191,401.3V143A5.32,5.32,0,0,1,196.34,137.68Z"/><rect class="cls-15" x="197.51" y="144.26" width="177.49" height="255.36"/><rect class="cls-15" x="375" y="144.26" width="177.49" height="255.36" transform="translate(927.49 543.88) rotate(180)"/><path class="cls-16" d="M201.82,142.23V397.05c115.3-9.3,173.2,2,173.2,2V144.22S332.25,119.31,201.82,142.23Z"/><path class="cls-17" d="M201.8,142.23V397.05c130.43-22.91,173.2,2,173.2,2V144.22S332.23,119.31,201.8,142.23Z"/><path class="cls-16" d="M548.2,142.23V397.05c-115.3-9.3-173.2,2-173.2,2V144.22S417.77,119.31,548.2,142.23Z"/><path class="cls-17" d="M548.2,142.23V397.05c-130.43-22.91-173.2,2-173.2,2V144.22S417.77,119.31,548.2,142.23Z"/><g class="cls-18"><path class="cls-19" d="M368,166.19s-39.3-22.89-159.14-1.83"/><path class="cls-19" d="M368,183.46s-39.3-22.88-159.14-1.83"/><path class="cls-19" d="M368,200.73s-39.3-22.88-159.14-1.83"/><path class="cls-19" d="M368,218s-39.3-22.89-159.14-1.83"/><path class="cls-19" d="M368,235.28s-39.3-22.89-159.14-1.83"/><path class="cls-19" d="M368,252.55s-39.3-22.88-159.14-1.83"/><path class="cls-19" d="M368,269.83s-39.3-22.89-159.14-1.84"/><path class="cls-19" d="M368,287.1s-39.3-22.89-159.14-1.83"/><path class="cls-19" d="M368,304.37s-39.3-22.88-159.14-1.83"/><path class="cls-19" d="M368,321.64s-39.3-22.88-159.14-1.83"/><path class="cls-19" d="M368,338.92s-39.3-22.89-159.14-1.83"/><path class="cls-19" d="M368,356.19s-39.3-22.89-159.14-1.83"/><path class="cls-19" d="M368,373.46s-39.3-22.88-159.14-1.83"/><rect class="cls-3" x="288.62" y="147.99" width="80.44" height="72.42"/><path class="cls-20" d="M295.44,152.57v57.34c53.08-.58,72.51,10.7,72.51,10.7V163.27S348.52,152,295.44,152.57Z"/><path class="cls-21" d="M304.11,204.54s9.84-18,17.77-26.1c11.26,8.66,27.18,31.27,27.18,31.27S334.23,203.62,304.11,204.54Z"/><path class="cls-21" d="M352.5,210.31a62.66,62.66,0,0,1,10.23,3.61s-16.93-24.47-25.86-32.47L333.26,185S344.73,198.09,352.5,210.31Z"/><path class="cls-21" d="M357.13,170c-.68,2.41-3.7,3.66-6.75,2.8s-5-3.51-4.28-5.92,3.7-3.66,6.74-2.8S357.81,167.62,357.13,170Z"/></g><g class="cls-22"><path class="cls-19" d="M382.05,321.64s39.3-22.88,159.14-1.83"/><path class="cls-19" d="M382.05,338.92s39.3-22.89,159.14-1.83"/><path class="cls-19" d="M382.05,356.19s39.3-22.89,159.14-1.83"/><path class="cls-19" d="M382.05,373.46s39.3-22.88,159.14-1.83"/><path class="cls-23" d="M430,221.12a35.74,35.74,0,1,1,64.62,21h0c-5.1,7.68-18.36,14-18.36,24.56v5.94a2.14,2.14,0,0,1-2.14,2.15H457.34a2.14,2.14,0,0,1-2.14-2.15v-5.94c0-10.53-13.26-16.88-18.36-24.56h0A35.59,35.59,0,0,1,430,221.12Z"/><path class="cls-24" d="M470.41,273.18c-.21-4.92-1.32-36.27,3.83-46.34,2.52-4.93,7.26-7.09,10.33-5.25,2.05,1.22,3,4.52,2.54,7.52-.89,5.92-6.32,13.22-21.07,13.22S445.86,235,445,229.11c-.45-3,.49-6.3,2.54-7.52,3.07-1.84,7.81.32,10.33,5.25,5.15,10.07,4,41.42,3.83,46.34"/><path class="cls-25" d="M473.37,191.22a29.81,29.81,0,0,1,22.46,28.88"/><path class="cls-26" d="M465.35,190.26a2,2,0,1,0,2-2A2.05,2.05,0,0,0,465.35,190.26Z"/><path class="cls-26" d="M477.41,268.24H454.67v10.84a9.31,9.31,0,0,0,1.45,5h0a9.77,9.77,0,0,0,8.25,4.54h3.34a9.77,9.77,0,0,0,8.25-4.54h0a9.31,9.31,0,0,0,1.45-5Z"/><path class="cls-27" d="M477.42,276.24l-.2,0-22.75-3.15a1.42,1.42,0,0,1,.39-2.81l22.75,3.15a1.41,1.41,0,0,1,1.21,1.6A1.43,1.43,0,0,1,477.42,276.24Z"/><path class="cls-27" d="M477.42,281.2l-.2,0L454.47,278a1.42,1.42,0,0,1,.39-2.81l22.75,3.15a1.42,1.42,0,0,1-.19,2.83Z"/><path class="cls-27" d="M476.51,286.08l-.2,0-21.56-3a1.41,1.41,0,0,1-1.21-1.6,1.43,1.43,0,0,1,1.6-1.21l21.56,3a1.42,1.42,0,0,1-.19,2.83Z"/><path class="cls-24" d="M450.73,203.72V147.26s3.67-.12,10-.08"/><path class="cls-28" d="M465.21,154.08c14.69.35,31.6,1.52,51,3.88"/><path class="cls-28" d="M465.21,160.32c14.69.35,31.6,1.52,51,3.88"/><path class="cls-28" d="M465.21,147.84c14.69.35,31.6,1.52,51,3.88"/><path class="cls-28" d="M465.21,167.21c5.79.14,11.91.41,18.4.82"/><path class="cls-26" d="M462.39,147.18a1.64,1.64,0,1,1-1.64-1.64A1.63,1.63,0,0,1,462.39,147.18Z"/><path class="cls-24" d="M392.35,197l0,36.68a210.26,210.26,0,0,1,36.29-5.1"/><path class="cls-28" d="M392.18,176.37c8.85-2.16,21.43-4.3,38.47-5.25"/><path class="cls-28" d="M392.18,183.81a213,213,0,0,1,38.47-5.26"/><path class="cls-28" d="M392.18,191.25a195.74,195.74,0,0,1,29.28-4.6"/><path class="cls-26" d="M394,197a1.64,1.64,0,1,1-1.64-1.63A1.63,1.63,0,0,1,394,197Z"/><polyline class="cls-24" points="481.77 280.94 481.77 299.23 497.31 299.23"/><path class="cls-28" d="M500.62,279.48s18.32,1,39.73,4.45"/><path class="cls-28" d="M500.62,285.72s18.32,1,39.73,4.45"/><path class="cls-28" d="M500.62,292s18.32,1,39.73,4.44"/><path class="cls-28" d="M500.62,298.21s9.32.5,22.44,2"/><path class="cls-26" d="M498.94,299.23a1.64,1.64,0,1,1-1.63-1.64A1.63,1.63,0,0,1,498.94,299.23Z"/></g><path class="cls-3" d="M135.75,370a20.6,20.6,0,1,1,0-41.2H302.21V370Z"/><path class="cls-13" d="M301.71,329.28v40.2h-166a20.1,20.1,0,1,1,0-40.2h166m1-1h-167a21.1,21.1,0,1,0,0,42.2h167v-42.2Z"/><path class="cls-20" d="M135.75,364a14.6,14.6,0,1,1,0-29.2H303.21V364Z"/><path class="cls-13" d="M302.71,335.28v28.2h-167a14.1,14.1,0,1,1,0-28.2h167m1-1h-168a15.1,15.1,0,1,0,0,30.2h168v-30.2Z"/><g class="cls-29"><line class="cls-30" x1="111.97" y1="347.65" x2="302.71" y2="347.65"/><line class="cls-30" x1="113.64" y1="356.54" x2="304.38" y2="356.54"/><polygon class="cls-13" points="258.17 356.38 252.85 352.51 247.53 356.38 247.53 342.38 258.17 342.38 258.17 356.38"/><line class="cls-30" x1="122.62" y1="342.38" x2="302.71" y2="342.38"/></g><path class="cls-3" d="M128.22,441.53a35.28,35.28,0,0,1,0-70.55H337.39a1,1,0,0,1,1,1V378a1,1,0,0,1-1,1H128.79c-14.91,0-27.39,11.87-27.83,26.45a27.31,27.31,0,0,0,27.26,28.1H337.39a1,1,0,0,1,1,1v6a1,1,0,0,1-1,1Z"/><path class="cls-13" d="M337.39,371.48a.48.48,0,0,1,.47.48V378a.47.47,0,0,1-.47.47H128.79c-15.18,0-27.89,12.08-28.33,26.94A27.8,27.8,0,0,0,128.22,434H337.39a.47.47,0,0,1,.47.48v6a.47.47,0,0,1-.47.48H128.22a34.78,34.78,0,0,1,0-69.55H337.39m0-1H128.22a35.78,35.78,0,0,0-35.77,35.78h0A35.78,35.78,0,0,0,128.22,442H337.39a1.47,1.47,0,0,0,1.47-1.48v-6a1.47,1.47,0,0,0-1.47-1.48H128.22a26.8,26.8,0,0,1-26.76-27.59c.44-14.56,12.77-26,27.33-26h208.6a1.47,1.47,0,0,0,1.47-1.47V372a1.47,1.47,0,0,0-1.47-1.48Z"/><path class="cls-20" d="M128.22,433a26.78,26.78,0,0,1,0-53.55H334.68V433Z"/><g class="cls-31"><line class="cls-30" x1="96.36" y1="396.34" x2="347.37" y2="396.34"/><line class="cls-30" x1="96.36" y1="410.84" x2="347.37" y2="410.84"/><line class="cls-30" x1="96.36" y1="423.86" x2="347.37" y2="423.86"/><line class="cls-30" x1="96.36" y1="385.36" x2="347.37" y2="385.36"/></g><polygon class="cls-13" points="139.13 438 130.39 428.5 121.64 438 121.64 396.34 139.13 396.34 139.13 438"/><path class="cls-32" d="M437.33,426.91l-.57,25,.2,7.53-17-.15a1.32,1.32,0,0,1-1.3-1.32h0a1.3,1.3,0,0,1,.84-1.21l.19-5.85-.59-26"/><path class="cls-33" d="M417.4,459c.3-1,2.37-8.06,2.37-8.06,7.43,3,17.06.71,17.06.71l1.72,10.16a.61.61,0,0,1-.61.61l-20.31-.17C417,462.21,417.39,459,417.4,459Z"/><line class="cls-34" x1="438.38" y1="460.19" x2="417.26" y2="460.02"/><path class="cls-34" d="M418,457a21.4,21.4,0,0,1,10.55-2.48,16.16,16.16,0,0,1,9.2,3.19"/><path class="cls-35" d="M413.65,338.21l3.72,109.42H438.9L437.12,359s2.42-10.18-1.37-19.27"/><line class="cls-36" x1="415.8" y1="338.21" x2="419.52" y2="447.63"/><path class="cls-32" d="M411,426.91l-1.65,25,.2,7.53-29.51-.15a1.32,1.32,0,0,1-1.3-1.32h0a1.3,1.3,0,0,1,.84-1.21l12.73-5.85.49-26"/><path class="cls-33" d="M377.49,459a4,4,0,0,1,1.41-2.25l13.5-5.81c7.44,3,17.07.71,17.07.71l1.71,10.16a.61.61,0,0,1-.61.61l-32.85-.17C377.06,462.21,377.48,459,377.49,459Z"/><path class="cls-34" d="M389.48,451.49a16.59,16.59,0,0,1,1.9,3.19"/><path class="cls-34" d="M387.78,452.51a13.73,13.73,0,0,1,1.56,2.71"/><path class="cls-34" d="M386.34,453.25a18.29,18.29,0,0,1,1.47,2.49"/><line class="cls-34" x1="411.01" y1="460.19" x2="377.35" y2="460.02"/><path class="cls-34" d="M410.08,455.22s-7.91.16-8.59,4.93"/><path class="cls-34" d="M381.67,455.53a25.6,25.6,0,0,1,2.61,4.53"/><path class="cls-35" d="M393.58,335.81C390.66,367.17,390,447.63,390,447.63h23c-.61-11.36,4.74-89.16,4.74-89.16s6.08-7.89,5.77-22.66"/><path class="cls-36" d="M396.81,335.81c-2.92,31.36-3.56,111.82-3.56,111.82"/><path class="cls-36" d="M404.74,346.8s7.91.76,10.09.71"/><path class="cls-36" d="M437.68,347.51s-5.47.4-8.68.37"/><path class="cls-36" d="M415.61,395.74l2-34.24a12.33,12.33,0,0,1,1.49-5.2,31.85,31.85,0,0,0,4-12.72"/><path class="cls-32" d="M408.36,255.09c-1.73,4.19-4.93,13.58-1.11,15.64s7.44.54,10.95-2.52a8.33,8.33,0,0,0,1.42-11.64C417,252.94,410.09,250.9,408.36,255.09Z"/><polyline class="cls-32" points="410.23 268.13 408.66 278.33 421.41 277.06 420.97 264.16"/><path class="cls-37" d="M415.76,250.47c-2.95-1.61-5.26-.21-7.16,1.28a3.55,3.55,0,0,0-1.27,1.62,1.75,1.75,0,0,0,.46,1.86c.37.32.93.53,1.07,1a1.3,1.3,0,0,1,0,.52,15.34,15.34,0,0,0,0,3.77.64.64,0,0,0,.2.48c.37.26.86-.17,1.06-.54s.65-.82,1-.59a.67.67,0,0,1,.26.56c.33,3.15.38,6.36,1.37,9.41a1.16,1.16,0,0,0,.32.57,1.56,1.56,0,0,0,.81.22q1.91.15,3.81.12a5.83,5.83,0,0,0,3.84-1.06c1.08-1,1.29-2.54,1.78-3.83,1.19-3.14,2.42-6,1.85-9.41-.41-2.47-1.76-4.91-4.47-5.51a28.78,28.78,0,0,0-5-.44"/><path class="cls-38" d="M395.68,291c-.31,1.16-2.23,31.59-2.87,48.74,11.93,2.05,32.54,2.6,44,0a535.85,535.85,0,0,0-3-59.13s-7.11-5.84-10.94-6.56c-4.34,2.43-12.62,3.06-12.62,3.06Z"/><path class="cls-32" d="M391.89,292.06s-7.73,11.73-10.7,12.41c-8.46,1.91-29.64,3-29.64,3l.16,11.11s23.31,4.64,38.55-2.26c8.9-4,17-23.49,17-23.49"/><path class="cls-32" d="M427.89,269.15a147.06,147.06,0,0,0,7.74-17.71,167.66,167.66,0,0,0,5.07-21.24L452,231.78s-1.36,15.46-3.94,25.34a288.82,288.82,0,0,1-9.26,28.13"/><path class="cls-32" d="M439.57,237.15c.71-4.84,3.47-23.28,4.31-23.51s.61,4.14,1.26,3.82,1.46-7.05,2.36-7.06c1.22,0,0,6.83,0,6.83s.75-2.24,1.82-1.95c.75.21.54,3,.54,3s.32-1.65,1.1-1.42.57,1.95.57,1.95.74-1.22,1.31-.73c1,.83-.78,12.14-1.86,22.7"/><path class="cls-38" d="M410.23,277.07s-10.68-.26-14.72,6.24S386,299.7,386,299.7l14.9,7.36L408,294.41"/><path class="cls-38" d="M414.83,276.59a16.56,16.56,0,0,0,8.67-3c2.22-1.6,2.94-3.9,5.67-7.58,6.64,0,14,8.79,14,8.79s-7,19.58-8.83,27"/><line class="cls-39" x1="400.9" y1="307.06" x2="406.82" y2="296.55"/><line class="cls-39" x1="435.15" y1="298.88" x2="434.42" y2="286.8"/><path class="cls-32" d="M363.72,306.62c-6.46.44-19.08.12-19.45.9s4,1.32,3.55,1.91-7.2.21-7.36,1.1c-.23,1.19,6.71,1.2,6.71,1.2s-7.5.65-7.39,1.74c.07.78,8,.77,8,.77s-6.84.31-6.75,1.12,7.52,1.27,7.52,1.27-6,.06-5.64.7c.65,1.09,7.94,1.43,17.62,2.42"/><path class="cls-32" d="M621.57,267.34c-9.91-2.77-12.28-2.51-23.64-7.44-8.4-3.65-24.43-16-24.43-16l7.81-6.71a89.27,89.27,0,0,0,21,10.52c8.25,2.92,16.55,4.87,16.55,4.87"/><path class="cls-32" d="M590.32,243.12c-4.18-2.84-16.9-11.27-17.52-10.92s1.15,1.9.59,2.1-4.95-3.16-5.47-2.64c-.7.7,4,3.9,4,3.9s-5.3-3.25-5.74-2.46c-.3.56,3.63,3.22,5,4.43-1.65-1.12-4.55-2.61-4.86-2s2.33,2.45,4.28,4c-1.3-.84-3.76-2.26-4.07-1.73s4,4,9.78,8.21"/><path class="cls-40" d="M637.61,261s1.31-1.38-3.77-4.11c-3.74-2-11.41-4.21-19.62-6.13l-1.7,15.76,12.85,4.69"/><path class="cls-32" d="M632.23,404.76l1.56,24.81L634,437l-29.3-.15a1.28,1.28,0,0,1-1.28-1.3h0a1.29,1.29,0,0,1,.83-1.2l12.64-5.81-2.72-25.78"/><path class="cls-41" d="M602.12,436.58a4,4,0,0,1,1.41-2.23l13.4-5.77c7.38,3,16.94.7,16.94.7l1.71,10.09a.62.62,0,0,1-.61.6l-32.62-.16C601.69,439.8,602.11,436.61,602.12,436.58Z"/><path class="cls-42" d="M614,429.16a15.32,15.32,0,0,1,1.88,3.17"/><path class="cls-42" d="M612.34,430.16a13.6,13.6,0,0,1,1.55,2.7"/><path class="cls-42" d="M610.91,430.9a19.2,19.2,0,0,1,1.46,2.48"/><line class="cls-42" x1="635.4" y1="437.79" x2="601.99" y2="437.62"/><path class="cls-42" d="M634.48,432.86s-7.86.16-8.53,4.89"/><path class="cls-42" d="M606.27,433.17a24.85,24.85,0,0,1,2.59,4.49"/><path class="cls-43" d="M617.67,307.62l-.3,3.31a218.75,218.75,0,0,0-6.72,52.43c0,22.7,3.1,60.21,3.1,60.21l22-.5s-3-50-2.58-62.19,3.49-33.83,3.49-33.83,9.12-8.16,5.19-22.1"/><path class="cls-44" d="M631.76,423.07s-2-50-1.57-62.19,2.47-33.83,2.47-33.83"/><polygon class="cls-45" points="612.75 425.8 636.88 425.8 636.55 419.92 612.42 419.92 612.75 425.8"/><path class="cls-32" d="M667.94,380.82l20.61,14.65,5.35,4.68-15.41,23.59a1.3,1.3,0,0,1-1.8.34h0a1.28,1.28,0,0,1-.54-1.36L678.33,409l-22.05-14.22"/><path class="cls-41" d="M676.8,425.7a4,4,0,0,1-1.08-2.41l2.64-14.35c6.59-4.48,10-13.7,10-13.7l8.15,5.37a.62.62,0,0,1,.16.84L679.6,427.3C679.24,427.85,676.81,425.72,676.8,425.7Z"/><path class="cls-42" d="M677.23,411.68a15.74,15.74,0,0,1,3.69.19"/><path class="cls-42" d="M677.13,413.64a13.75,13.75,0,0,1,3.11.21"/><path class="cls-42" d="M677,415.23a19.66,19.66,0,0,1,2.87.17"/><line class="cls-42" x1="695.19" y1="399.75" x2="677.59" y2="426.39"/><path class="cls-42" d="M691.37,397.24s-3.93,6.1-.37,9.29"/><path class="cls-42" d="M676.26,420.35a25.63,25.63,0,0,1,5.18.34"/><path class="cls-43" d="M625.81,308.78s-2.27,41.71,3.52,60.08c6.25,19.8,43.3,38.75,43.3,38.75L683.8,391.2s-27.23-19.9-30.48-27.26c-2.27-5.13-2-27.93-1.24-30.67,1.67-6.5,2.51-15.82-.29-22.55l-1.23-3.4"/><path class="cls-44" d="M681.35,394s-26.05-18.08-29.8-27.29c-2.77-6.81-3.26-29.24-2.56-32,1.67-6.49,2.56-17.22-.16-23.28"/><path class="cls-44" d="M625.71,311.83s-2.19,37.29,2.9,54.17a80.18,80.18,0,0,0,4.9,11.52"/><polygon class="cls-45" points="673.78 409.07 686.16 391.91 681.56 388.23 668.84 405.88 673.78 409.07"/><path class="cls-44" d="M620,311.73s1.22,3.63-4,4.53"/><path class="cls-44" d="M617.37,310.93s12.76,5.06,34.42-.21"/><path class="cls-44" d="M623.15,311.73s-.9,7.91.26,8.63a20.56,20.56,0,0,0,2.17,1.19"/><path class="cls-44" d="M641.24,313s2,4.9,9,4.84"/><path class="cls-44" d="M623.52,312.16l-1.78-.2a.48.48,0,0,1-.4-.51c0-.71.1-2,.14-2.74a.45.45,0,0,1,.44-.46h1.25"/><path class="cls-46" d="M623.52,309.84a.54.54,0,0,1-.54.54.55.55,0,0,1-.55-.54.55.55,0,0,1,.55-.55A.55.55,0,0,1,623.52,309.84Z"/><line class="cls-44" x1="631.39" y1="312.46" x2="631.39" y2="307.75"/><line class="cls-44" x1="643.91" y1="312.52" x2="643.19" y2="308.58"/><path class="cls-40" d="M624,260.7c-4.4,7.37-7.54,10.57-8.07,13-1.27,5.92,2.73,10.79,2.73,10.79l-1,23.1a73.4,73.4,0,0,0,33.11.23c.75-8.33,6-27.17,6-32.56,0-13.6-8.12-16.28-12.47-18l-10.51-.42Z"/><path class="cls-47" d="M646.37,258s-1.8,2.88-7.63,2.14S632.3,257,632.3,257"/><path class="cls-32" d="M653.32,280.94S643,292.61,632.16,299.49c-8.92,5.66-36.07,7.83-36.07,7.83L592.76,296s17.57-3.53,28.48-7.67c9.46-3.59,17.34-15.69,17.34-15.69"/><path class="cls-32" d="M605.88,292.94c-10.89,3.07-25.52,4.59-25.79,5.37s2.44.78,2.1,1.38-6.7,1-6.76,1.83c-.09,1.14,6.41.39,6.41.39s-7.07,1.18-6.86,2.2c.15.71,5.6.07,7.71.08-2.29.27-6,1.16-5.77,1.91s3.88.37,6.74.24c-1.77.25-5,.87-4.86,1.57s14,.22,24-1.28"/><polyline class="cls-40" points="655.41 279.99 646.68 290.6 632.86 279.46 640.83 269.38"/><line class="cls-47" x1="632.86" y1="279.46" x2="639.67" y2="270.86"/><line class="cls-47" x1="646.68" y1="290.6" x2="653.38" y2="283"/><path class="cls-47" d="M619.84,268.48s2.62-4.2,2.62-5.09"/><path class="cls-48" d="M650.85,236.27a4.83,4.83,0,0,0,4.8.95c1.7-.7,3.08-2.09,4.77-2.87a8,8,0,0,1,6.75.24c1.69.9,2.89,2.51,4.46,3.6,2.46,1.72,5.38,2.16,7.78.24s5.79-2.6,8.22-.28l-3.1,10.57a4.2,4.2,0,0,0-4.45,0,14.43,14.43,0,0,1-3.59,1.87c-4.26,1.42-8.19-1.31-10.74-4.59-.82-1-1.59-2.28-2.84-2.74-1.72-.62-3.56-.25-5.33-.5-2.72-.37-4.44-2.35-6-4.41"/><path class="cls-49" d="M652.09,237.29l-.21-1.26a5.3,5.3,0,0,1-.09-1.68,1.75,1.75,0,0,1,.92-1.35.54.54,0,0,1,.48,0c.19.09.24.34.25.55a4,4,0,0,1-.17,1c-.27,1-.59,2.06-1,3.08"/><path class="cls-49" d="M652.48,237.3a5.49,5.49,0,0,1,2.46-2.33,1.65,1.65,0,0,1,1.24-.16.47.47,0,0,1,.25.21.49.49,0,0,1,0,.27,2.22,2.22,0,0,1-1.07,1.39,5.84,5.84,0,0,1-2.56,1,4.9,4.9,0,0,1,2.64,4.8"/><path class="cls-32" d="M635.88,249.17l-2,7.72s1.23,1.68,5.45,1.77c4,.08,5.06-1.35,5.06-1.35l1.4-11.52"/><path class="cls-32" d="M636.47,236.56c-4.07,6.27-6.09,11.92-1.73,14.25,4.6,2.45,10.15.93,11.71-5C648.09,239.61,639.16,233.16,636.47,236.56Z"/><path class="cls-48" d="M653.38,243.23c.71-3.92-1.66-9.13-5.83-10-6.24-3.12-9.36-1.19-12.52,1.63-.35.31-.71.8-.49,1.21a1,1,0,0,0,.45.38,6.16,6.16,0,0,0,3.09.68,2.49,2.49,0,0,0,1.69,2,6.33,6.33,0,0,0,2.74.23,1.62,1.62,0,0,0,.46,1.78,8.93,8.93,0,0,1,1.35,1.4c.57.92.34,2.1.23,3.19a12.43,12.43,0,0,0,.27,4.12,1,1,0,0,0,.46.76,1,1,0,0,0,.6,0A9.35,9.35,0,0,0,653.38,243.23Z"/><path class="cls-50" d="M635.29,251.55a8.72,8.72,0,0,0,6.65-.44"/><polygon class="cls-51" points="645.95 245.13 645.95 245.13 645.95 245.13 645.95 245.13"/><path class="cls-52" d="M637.61,242s-2.27,1.94-2.32,2.65,1.52,1.26,1.52,1.26"/><path class="cls-3" d="M634.83,246.22,639,248.1a2.89,2.89,0,0,1-3.69.8C633.71,248.05,634.83,246.22,634.83,246.22Z"/><path class="cls-48" d="M636.05,240.64a3.28,3.28,0,0,0-.42.56c-.28.42.42.83.68.39a4.48,4.48,0,0,0,.31-.62c.14-.32-.36-.58-.57-.33Z"/><path class="cls-53" d="M637.75,240.12a1.17,1.17,0,0,0-1.56-.67"/><path class="cls-48" d="M640.64,243.24a3.27,3.27,0,0,0-.39.58c-.25.44.44.84.68.39a4.59,4.59,0,0,0,.28-.64c.11-.31-.36-.6-.57-.33Z"/><path class="cls-53" d="M640.94,241.6s1.16,0,1.89,1.52"/><path class="cls-32" d="M643.52,245.86a1.28,1.28,0,0,1,1.19-.63c1.22,0,1.39,1.6.87,2.61a3.09,3.09,0,0,1-1.39,1.4c-.86.45-1.7.31-1.82-.68"/><path class="cls-32" d="M291.19,423.06,293,450.64l-.22,8.31,31.54-.17a1.44,1.44,0,0,0,1.43-1.45h0a1.44,1.44,0,0,0-.93-1.34l-13-6.45-.54-28.65"/><path class="cls-54" d="M328.21,458.43a5.76,5.76,0,0,0-2.58-2.48l-13.87-6.41c-8.21,3.32-18.83.78-18.83.78L291,461.53a.68.68,0,0,0,.68.67l35.23-.19C329,462,328.22,458.46,328.21,458.43Z"/><line class="cls-55" x1="313.96" y1="450.18" x2="312.22" y2="453.7"/><path class="cls-55" d="M315.83,451.3a15.4,15.4,0,0,0-1.72,3"/><path class="cls-55" d="M317.42,452.12a21.09,21.09,0,0,0-1.62,2.75"/><line class="cls-55" x1="291.22" y1="459.78" x2="328.36" y2="459.59"/><path class="cls-55" d="M322.57,454.64a28.36,28.36,0,0,0-2.88,5"/><path class="cls-55" d="M292.26,454.3s8.72.17,9.47,5.43"/><path class="cls-33" d="M281.64,335.81a48,48,0,0,0,0,20.69l8,89h25.14s-3-77.31-4.84-109.71"/><path class="cls-56" d="M265,423.25l-.55,27.58-.22,8.3L296.8,459a1.44,1.44,0,0,0,1.43-1.44h0a1.43,1.43,0,0,0-.93-1.34l-14-6.46,1.83-28.65"/><path class="cls-57" d="M299.66,458.61a4.53,4.53,0,0,0-1.56-2.48l-14.89-6.41c-8.21,3.33-18.84.79-18.84.79l-1.89,11.21a.67.67,0,0,0,.67.67l36.26-.19C300.14,462.2,299.67,458.65,299.66,458.61Z"/><path class="cls-58" d="M286.43,450.36a17.5,17.5,0,0,0-2.1,3.53"/><path class="cls-58" d="M288.3,451.48a15.4,15.4,0,0,0-1.72,3"/><path class="cls-58" d="M289.89,452.3a22.28,22.28,0,0,0-1.62,2.75"/><line class="cls-58" x1="262.67" y1="459.96" x2="299.81" y2="459.77"/><path class="cls-58" d="M263.7,454.48s8.73.18,9.48,5.44"/><path class="cls-58" d="M295,454.82a28.55,28.55,0,0,0-2.88,5"/><path class="cls-33" d="M265.22,335.81a48.09,48.09,0,0,0-.25,19.55,8.47,8.47,0,0,1,.16,2.3l-2.25,87.86H288s6.21-81.68,5.53-109.71"/><path class="cls-59" d="M268.29,335.81a48.3,48.3,0,0,0-.25,19.55,8.09,8.09,0,0,1,.16,2.3L266,445.52"/><path class="cls-59" d="M289.08,437.06c2.3-36.3,5-78.64,4.47-101.25"/><path class="cls-59" d="M267.24,343.58c6.22,0,12-1.14,12.69-7.77"/><path class="cls-59" d="M293.29,349s1.9.25,2.36-.78c1-2.08,1-8.13,1-12.45"/><path class="cls-59" d="M303.32,335.26a6.48,6.48,0,0,0,7,5.9"/><line class="cls-59" x1="263" y1="441.02" x2="288.3" y2="441.02"/><line class="cls-59" x1="289.36" y1="441.02" x2="314.63" y2="441.02"/><path class="cls-57" d="M283.27,273.32c-19.33,14.07-18,43.14-18,62.49,7,2.33,39.64,2,45.51,0-.4-9.41-2-40.21-4.66-49.72-1.52-3.56-11-12.08-11-12.08Z"/><rect class="cls-3" x="273.81" y="308.52" width="25.96" height="34.36" transform="translate(191.47 -97.67) rotate(28.68)"/><line class="cls-60" x1="288.03" y1="309.61" x2="299.47" y2="315.87"/><line class="cls-60" x1="282.62" y1="311.33" x2="301.15" y2="321.46"/><line class="cls-60" x1="280.75" y1="314.74" x2="299.28" y2="324.88"/><line class="cls-60" x1="278.88" y1="318.16" x2="297.41" y2="328.3"/><line class="cls-60" x1="277.01" y1="321.58" x2="295.54" y2="331.71"/><line class="cls-60" x1="275.14" y1="325" x2="293.67" y2="335.13"/><line class="cls-60" x1="273.27" y1="328.42" x2="291.8" y2="338.55"/><line class="cls-60" x1="271.4" y1="331.83" x2="289.93" y2="341.97"/><path class="cls-32" d="M275.62,331.89l-12.29-5.95c2.27,1.33,22.72,11.34,24.41,12.19a24.74,24.74,0,0,0,5.64,2.05,2.09,2.09,0,0,0,1.16,0,.75.75,0,0,0,.49-.92,1.29,1.29,0,0,0,1.3-.64,1.27,1.27,0,0,0-.17-1.44,3.31,3.31,0,0,0,1.37-.73,1.13,1.13,0,0,0,.18-1.42c-.06-.08-.15-.16-.13-.26a.28.28,0,0,1,.12-.17c.33-.28.75-.44,1.09-.71a1,1,0,0,0,.44-1.12,1.35,1.35,0,0,0-.45-.53l-3.38-2.74c-.19-.15-.38-.42-.22-.59a.46.46,0,0,1,.38-.08,13.37,13.37,0,0,0,2.45,0c.23,0,.51-.09.56-.31a.45.45,0,0,0-.07-.32,2.47,2.47,0,0,0-1-.86c-4.52-2.5-13.65-7.37-13.65-7.37"/><path class="cls-32" d="M258.43,289.2s-10.79,21.17-7.65,27.26c3.64,7.05,29.73,17.51,29.73,17.51l6.28-12.27s-18.5-10.11-18.5-13.67c0-3.09,5.52-12.5,5.52-12.5"/><path class="cls-32" d="M312.79,282.59s9.25,11,11.88,11.51,16.85-9.66,16.85-9.66l6.71,9.92s-19,16.8-25.75,16.14-20.7-15.14-20.7-15.14"/><path class="cls-57" d="M283.27,273.32s-12.12-2.89-19.11,5.79a58.17,58.17,0,0,0-9.74,18.42l16.26,7.53,7.45-14.73"/><path class="cls-57" d="M295.11,274s6.49.61,10.72,2.62,16.65,15.54,16.65,15.54L309.71,304.4l-9.39-9.84"/><path class="cls-32" d="M336.57,288c4-2.85,19.17-13.65,19.93-13.21s-2.57,3.32-1.88,3.56,6.08-3.83,6.71-3.2c.86.87-4.89,4.76-4.89,4.76s6.58-3.66,7.1-2.69c.38.68-6.21,5.1-6.21,5.1s5.86-3.56,6.23-2.84-5.53,5.26-5.53,5.26,5-3.32,5.07-2.57c.07,1.27-13.08,10.53-20.56,16.76"/><path class="cls-50" d="M353.59,279c-1.11,2.21-.5,4.17-2.59,6.26"/><line class="cls-58" x1="270.68" y1="305.06" x2="276.94" y2="292.69"/><line class="cls-58" x1="308.54" y1="303.18" x2="306.51" y2="287.88"/><path class="cls-32" d="M284.92,265l-1.65,8.35c1.25,1.44,7.28,4.57,11.84.69l.13-5.8Z"/><path class="cls-32" d="M297,255.43s3.76,10.43.41,13.81c-1.74,1.76-6.87,2.07-9.06.33-1.62-1.3-4-9.31-3.1-10.72C288.75,253.49,297,255.43,297,255.43Z"/><path class="cls-52" d="M294.76,260.35s2,2.46,1.93,3.22-1.82,1-1.82,1"/><path class="cls-3" d="M297,265.3l-4.71,1.2A3.08,3.08,0,0,0,296,268C297.85,267.44,297,265.3,297,265.3Z"/><path class="cls-48" d="M296.41,259.5a4.44,4.44,0,0,0,.19.62c.18.47.95.25.76-.21a5.16,5.16,0,0,0-.32-.67.35.35,0,0,0-.63.26Z"/><path class="cls-53" d="M295.73,258.34a1.25,1.25,0,0,1,1.77-.41"/><path class="cls-48" d="M290.84,261.38a4.47,4.47,0,0,0,.16.63c.15.48.93.27.76-.21a5.79,5.79,0,0,0-.29-.68c-.19-.37-.69-.1-.63.26Z"/><path class="cls-53" d="M291.46,259.3a2.34,2.34,0,0,0-2.27,1.24"/><path class="cls-37" d="M280.4,263a11,11,0,0,1-.49-8.8,9.07,9.07,0,0,1,3.36-4.22,15.1,15.1,0,0,1,6.36-1.82,12.32,12.32,0,0,1,6.56,1.3,5.77,5.77,0,0,1,3.37,5.39,2.1,2.1,0,0,1-.71,1.51,1.94,1.94,0,0,1-1.1.35,5.64,5.64,0,0,1-3.77-1.5,2.14,2.14,0,0,1-1.26,1.56c-.79.21-1.55-.41-2.14-1a4.55,4.55,0,0,1-1.71,2.14,2.37,2.37,0,0,1-2.33-.13c.06,0,.06,2.06.07,2.28,0,.85-.59,1.59-.73,2.43a34.39,34.39,0,0,1-1.43,5.65,11.61,11.61,0,0,0-2.25-2.55A10.5,10.5,0,0,1,280.4,263Z"/><path class="cls-50" d="M294.83,270.81a14.4,14.4,0,0,1-6.87-1.66"/><path class="cls-61" d="M293.69,261.29a2.87,2.87,0,1,1-2.87-2.87A2.87,2.87,0,0,1,293.69,261.29Z"/><path class="cls-61" d="M299.22,258.18c.51,1.44,0,2.93-1.09,3.32s-2.42-.47-2.93-1.92,0-2.93,1.09-3.32S298.71,256.73,299.22,258.18Z"/><line class="cls-61" x1="295.11" y1="259.41" x2="293.39" y2="260.02"/><line class="cls-61" x1="287.96" y1="261.6" x2="284.53" y2="263.4"/><path class="cls-32" d="M286,263.38c-1-1.61-2-1.49-2.58-.74-.81,1,.31,3.42.91,3.88,1.21.93,2.27,1,2.49-.08"/><path class="cls-32" d="M215.57,214.62l-3.38,6.43a13.76,13.76,0,0,1-5.5-1.57,8.53,8.53,0,0,1-4.09-3.72l5.73-7.57"/><path class="cls-32" d="M222.77,202.47c3.15,1.86-2.05,13.61-4.89,14.35s-8.49-4.81-10.17-9.51,3.73-7.28,6.91-8.24S222.77,202.47,222.77,202.47Z"/><path class="cls-48" d="M220.3,208.09a3.86,3.86,0,0,0-.32.56c-.23.46.47.85.68.4.1-.23.19-.46.27-.7a.34.34,0,0,0-.63-.26Z"/><path class="cls-53" d="M222.18,207a2.35,2.35,0,0,0-2.51-.67"/><path class="cls-3" d="M217.67,212.74l2,1.43s-.78,1.52-1.5.93S217.67,212.74,217.67,212.74Z"/><path class="cls-62" d="M225.6,205a30.69,30.69,0,0,1-4.08-1.87,3.75,3.75,0,0,0-3,3.19c0,.35-.05.82-.39.87s-.43-.2-.5-.43-.06-.48-.15-.7a1,1,0,0,0-1.24-.46,1.74,1.74,0,0,0-1,1c-.48,1.14-.91,2.52.18,3.48a2,2,0,0,1,.48.48c.24.42,0,.95-.32,1.35a5.41,5.41,0,0,1-4.73,2.65c-1.8,0-4.79-2.38-5-3.56,0-.11-1.74-7.37,1.46-12a9,9,0,0,1,7.88-4,9.11,9.11,0,0,1,4.59,2C225.08,198.06,226.21,203.47,225.6,205Z"/><path class="cls-32" d="M222.57,209.34s.47,3.52-.23,3.9-2.16-.61-2.16-.61"/><rect class="cls-63" x="127.88" y="316.86" width="22.17" height="0.99" transform="translate(456.1 177.88) rotate(89.91)"/><path class="cls-64" d="M147.63,309.41l-.45-1.92s-2.51-.73-4.25-1a21.28,21.28,0,0,0-3.49-.21l0,22.17s1.92-.58,5-5.88a11.55,11.55,0,0,1,2.61-3.15Z"/><line class="cls-65" x1="145.41" y1="321.18" x2="144.03" y2="320.14"/><line class="cls-65" x1="144.55" y1="322.47" x2="143.16" y2="321.6"/><line class="cls-65" x1="143.81" y1="323.68" x2="142.37" y2="322.88"/><path class="cls-32" d="M158.23,308.29l-11-.8s-1.14,1-1.13,4.8a27.12,27.12,0,0,0,1,7.12l12.8,1.67"/><path class="cls-41" d="M172.94,263.55c-3.51,9.39,2.22,23,2.22,23l3.61,23-29.6-2.08.64,17.81s30.73,3.21,38.17,3.21,10.31-1.66,12.49-6c3.25-6.49-1.42-42.37-1.42-43l-5.1-23"/><line class="cls-66" x1="152.97" y1="307.91" x2="153.89" y2="325.69"/><rect class="cls-63" x="219.19" y="327.28" width="22.17" height="0.99"/><path class="cls-64" d="M222.34,319.09l-1.92.45s-.73,2.51-1,4.25a20.57,20.57,0,0,0-.22,3.48l22.17,0s-.58-1.93-5.87-5a11.47,11.47,0,0,1-3.15-2.62Z"/><line class="cls-65" x1="234.11" y1="321.34" x2="233.07" y2="322.72"/><line class="cls-65" x1="235.4" y1="322.21" x2="234.52" y2="323.59"/><line class="cls-65" x1="236.61" y1="322.95" x2="235.81" y2="324.38"/><path class="cls-32" d="M222.38,311.13l-2,8.41s1,1.14,4.8,1.14a27.36,27.36,0,0,0,7.12-1l3.06-11.36"/><path class="cls-41" d="M182.88,268.63s-3.25,16.62,13.26,20.2c7.38,1.59,28.38,2.12,28.38,2.12l-4.69,25.68h18s3.88-19.35,5.05-32.29c.78-8.62-4-13.33-9.89-13.33s-23.62-1.88-23.62-1.88l-3-3.74"/><path class="cls-66" d="M199.84,289.42s-13.9,0-17.22-15.53"/><path class="cls-66" d="M190,272.42a37.87,37.87,0,0,0,8.66.4"/><path class="cls-66" d="M171.8,270.22a27.93,27.93,0,0,0,6.12,1"/><line class="cls-66" x1="220.32" y1="313.29" x2="238.51" y2="313.29"/><polygon class="cls-67" points="252.79 235.48 253.66 236.97 260.04 231.82 258.95 230.51 252.79 235.48"/><path class="cls-33" d="M259.33,232.13a6.23,6.23,0,0,1-.29-8.79h0a6.22,6.22,0,1,1,.29,8.79Zm.68-7.88h0a4.89,4.89,0,1,0,3.44-1.55A4.88,4.88,0,0,0,260,224.25Z"/><path class="cls-33" d="M248.67,239.9h0a1.23,1.23,0,0,0,1.76.15l7.79-6.29-1.54-1.95-7.8,6.29A1.44,1.44,0,0,0,248.67,239.9Z"/><path class="cls-32" d="M239.58,238.65l6.88-2s4-3.14,5.51-3.2c1.68-.08,2,.48,2,.48l-.48.39a1.16,1.16,0,0,0-.09,1.73l.06.07a1.23,1.23,0,0,0,1.65.09l1.06-.86c0,.05,1.72.09.44,1.61.75,0,1.35.92.13,1.91.5.21.54,1.06-.32,1.93.59.58-.16,1.52-.84,1.83-1.3.59-14.12,4.2-14.12,4.2"/><path class="cls-68" d="M212.4,220.45c9.09,12.57,4.2,16.64-2.33,48.71a193.86,193.86,0,0,1-38.51-3.77,246,246,0,0,1,14.83-35.56c4.59-8.93,12.22-13.38,16.54-14.51"/><path class="cls-68" d="M198.61,234.58s11.81,19.74,18.48,20.71C227.69,256.84,247,250,247,250l-2-13.14s-21.23,2.89-22.16,2.37c-3-1.72-10.4-18.82-10.4-18.82"/><path class="cls-69" d="M213.56,253.54a62.27,62.27,0,0,1-13.72-17.46"/><line class="cls-70" x1="507.28" y1="208.81" x2="530.61" y2="428.97"/><line class="cls-70" x1="561.09" y1="208.81" x2="584.43" y2="428.97"/><line class="cls-70" x1="508.27" y1="218.2" x2="562.09" y2="218.2"/><line class="cls-70" x1="510.17" y1="236.1" x2="563.99" y2="236.1"/><line class="cls-70" x1="512.07" y1="254" x2="565.88" y2="254"/><line class="cls-70" x1="513.96" y1="271.9" x2="567.78" y2="271.9"/><line class="cls-70" x1="515.86" y1="289.8" x2="569.68" y2="289.8"/><line class="cls-70" x1="517.76" y1="307.7" x2="571.57" y2="307.7"/><line class="cls-70" x1="519.65" y1="325.6" x2="573.47" y2="325.6"/><line class="cls-70" x1="521.55" y1="343.49" x2="575.37" y2="343.49"/><line class="cls-70" x1="523.45" y1="361.39" x2="577.26" y2="361.39"/><line class="cls-70" x1="525.34" y1="379.29" x2="579.16" y2="379.29"/><line class="cls-70" x1="527.24" y1="397.19" x2="581.06" y2="397.19"/><line class="cls-70" x1="529.14" y1="415.09" x2="582.95" y2="415.09"/><path class="cls-32" d="M570.49,176.81l-.38,15.76s-7.86,5.05-13.22-2.49l1.8-7.66Z"/><path class="cls-32" d="M560.69,167.11s-7.92,9.72-5.35,14.1c1.34,2.27,3.76,3.57,6.48,2.33,2-.91,10.38-7.28,9.8-9C569.38,168.1,560.69,167.11,560.69,167.11Z"/><path class="cls-32" d="M557.12,172.79s-2.46,1.56-2.76,2.89c-.13.59,1.86,1.13,1.86,1.13"/><path class="cls-3" d="M556.07,178l3.67.28C559.61,179.61,556.21,182.38,556.07,178Z"/><path class="cls-48" d="M559.34,173.08a3.38,3.38,0,0,0-.38.79c0,.18.13.42.33.34a1,1,0,0,0,.6-1,.3.3,0,0,0-.55-.15Z"/><path class="cls-53" d="M561.71,172.94a2.29,2.29,0,0,0-1.47-1.38,1.19,1.19,0,0,0-.87,0"/><path class="cls-37" d="M574.75,169.86a9.75,9.75,0,0,1-1.3-1.18c-.88-1.15-.68-2.86-1.72-3.89s-2.55-.92-3.82-1.47c-.76-.34-1.4-.9-2.15-1.29a13.17,13.17,0,0,0-4-1.31A4.61,4.61,0,0,0,558,162a2.4,2.4,0,0,0-.54,2.94c.52.74,1.6,1.08,1.94,1.91s-.07,1.49.13,2.22c.38,1.36,2.36,1.67,3.19,2.85s.21,2.79.73,4.11c.36.95,1.27,1.66,1.57,2.63.19.63.1,1.31.29,1.94.58,2,3.16,3.21,5.12,3.21,1,0,1.2-.44,1.72-1.22a26.24,26.24,0,0,0,3-5.54c.69-1.89,1.51-5.17-.1-6.88A3.83,3.83,0,0,0,574.75,169.86Z"/><path class="cls-32" d="M563.1,176.62c.81-2,2.56-.71,2.95.14.52,1.12-1.09,3.11-1.76,3.4-1.34.58-2.34.36-2.3-.66"/><path class="cls-50" d="M558.45,184a13.83,13.83,0,0,0,4.48-1.09"/><path class="cls-32" d="M585.2,334.83l6.47,26.81,1.68,8.12L563.64,375a1.4,1.4,0,0,1-1.56-1.19h0a1.43,1.43,0,0,1,.61-1.47l11.65-8.67L566.51,336"/><path class="cls-71" d="M561,375.14a4.46,4.46,0,0,1,1-2.7l12.43-8.77c8.07,1.9,17.3-2.36,17.3-2.36l3.72,10.7a.65.65,0,0,1-.5.77l-33.07,5.84C561.17,378.73,561,375.17,561,375.14Z"/><path class="cls-72" d="M571.57,364.83A17.8,17.8,0,0,1,574.1,368"/><path class="cls-72" d="M570.06,366.25a15.88,15.88,0,0,1,2.1,2.65"/><path class="cls-72" d="M568.76,367.31a23.25,23.25,0,0,1,2,2.44"/><line class="cls-72" x1="594.92" y1="370.32" x2="561.04" y2="376.3"/><path class="cls-72" d="M593,365.11s-7.92,1.62-7.67,6.91"/><path class="cls-72" d="M564.5,370.64a28.61,28.61,0,0,1,3.51,4.43"/><path class="cls-71" d="M557,256.3s1.58,31.08,3.65,54.35a263.27,263.27,0,0,0,9.18,49l22.53-3.32s-7.42-34.87-8.23-45.67c-1.15-15.32-.3-37.3-.3-37.3a27.92,27.92,0,0,0,.4-20.18"/><path class="cls-73" d="M560.85,256s0,36.62,3.62,60.41c3.15,20.83,8.52,42.78,8.52,42.78"/><line class="cls-73" x1="568.73" y1="355.73" x2="590.95" y2="351.56"/><path class="cls-32" d="M560,339.89l1.61,27.54.21,8.3-30.16-.17a1.39,1.39,0,0,1-1.33-1.44h0a1.44,1.44,0,0,1,.86-1.34l13-6.45-2.8-28.61"/><path class="cls-41" d="M529,375.21a4.45,4.45,0,0,1,1.45-2.47l13.79-6.41c7.6,3.32,17.44.78,17.44.78l1.76,11.2a.66.66,0,0,1-.63.67l-33.58-.19C528.59,378.79,529,375.24,529,375.21Z"/><path class="cls-74" d="M541.28,367a17.76,17.76,0,0,1,2,3.52"/><path class="cls-74" d="M539.55,368.09a16.31,16.31,0,0,1,1.6,3"/><path class="cls-74" d="M538.08,368.91a22.8,22.8,0,0,1,1.5,2.75"/><line class="cls-74" x1="563.29" y1="376.56" x2="528.89" y2="376.37"/><path class="cls-74" d="M562.33,371.08s-8.08.18-8.77,5.43"/><path class="cls-74" d="M533.3,371.42a29,29,0,0,1,2.67,5"/><path class="cls-41" d="M540.7,256.29s-2.22,33.64-1.34,57,2.14,47.24,2.14,47.24h23s-.67-38-.13-52.34,2.86-33.7,2.86-33.7,5.08-6.17,2.11-20.07"/><path class="cls-75" d="M544.55,256.29s-2.3,33.64-1.38,57,2.22,47.24,2.22,47.24"/><path class="cls-75" d="M552.32,263s6.74.24,10,0"/><path class="cls-73" d="M574.17,263.26s5.93-.13,8.79-.55"/><line class="cls-75" x1="541.28" y1="355.94" x2="564.47" y2="355.94"/><path class="cls-76" d="M595.06,228.23c-2.17-17.06-6.78-25.45-11.28-30.83a23.39,23.39,0,0,0-13.38-8.07l-1,21.39s8.82,18,8.77,20.39c-.1,5.65-7.2,25.2-7.2,25.2l15.16-1.37S596.25,237.6,595.06,228.23Z"/><path class="cls-32" d="M505.71,180.23c-3.82-2.89-13.51-13.09-14.4-12.69s2.46,4,1.66,4.22-6.34-5-7.13-4.4c-1.07.86,4.9,5.92,4.9,5.92s-1.52-.61-2.23.41c-.5.72.94,2.19.94,2.19s-1.68-.64-2.19.12,1.11,2.49,1.11,2.49-1.36-.67-1.67.11c-.52,1.29,3.49,5.34,11,12.33"/><path class="cls-77" d="M570.4,189.33s11.92,4.49,14.77,20.64c1.27,7.18.94,47.72.93,47.69-22.12,3.91-45.78-.82-45.78-.82s.94-31.21.73-40.74c-.51-22.77,17.68-26.32,17.68-26.32Z"/><path class="cls-78" d="M586.12,254.94a137.28,137.28,0,0,1-45.77-1"/><path class="cls-77" d="M569.39,189.37s-14-.57-24.58.89c-10.91,1.5-18.81,2.32-23,.87s-20-16-20-16l-11.31,11.21s17.06,22.4,32.25,24.27,31.82-2.08,31.82-2.08"/><line class="cls-78" x1="541.31" y1="210.66" x2="552.15" y2="208.96"/></g></g></svg>